<svg width="59" height="89" viewBox="0 0 59 89" fill="none" xmlns="http://www.w3.org/2000/svg">
<g clip-path="url(#clip0_167_598)">
<path d="M15.0513 88.9997C23.0898 88.9997 29.61 82.4092 29.61 74.284V59.5684H15.0513C7.0128 59.5684 0.492676 66.1588 0.492676 74.284C0.492676 82.4092 7.0128 88.9997 15.0513 88.9997Z" fill="#0ACF83"/>
<path d="M0.492676 44.8348C0.492676 36.7096 7.0128 30.1191 15.0513 30.1191H29.61V59.5685H15.0513C7.0128 59.5505 0.492676 52.96 0.492676 44.8348Z" fill="#A259FF"/>
<path d="M0.492676 15.3856C0.492676 7.26037 7.0128 0.669922 15.0513 0.669922H29.61V30.1193H15.0513C7.0128 30.1193 0.492676 23.5108 0.492676 15.3856Z" fill="#F24E1E"/>
<path d="M29.6279 0.669922H44.1866C52.2251 0.669922 58.7452 7.26037 58.7452 15.3856C58.7452 23.5108 52.2251 30.1012 44.1866 30.1012H29.6279V0.669922Z" fill="#FF7262"/>
<path d="M58.7452 44.8348C58.7452 52.96 52.2251 59.5505 44.1866 59.5505C36.1481 59.5505 29.6279 52.96 29.6279 44.8348C29.6279 36.7096 36.1481 30.1191 44.1866 30.1191C52.2251 30.1191 58.7452 36.7096 58.7452 44.8348Z" fill="#1ABCFE"/>
</g>
<defs>
<clipPath id="clip0_167_598">
<rect width="58.2524" height="88.3301" fill="white" transform="translate(0.492676 0.669922)"/>
</clipPath>
</defs>
</svg>
