<svg viewBox="0 0 40 41" xmlns="http://www.w3.org/2000/svg">
 <symbol id="linkedin">
   <path xmlns="http://www.w3.org/2000/svg" d="M34.5749 0.642578H6.17579C2.93143 0.642578 0.291992 3.27494 0.291992 6.51061V34.8336C0.291992 38.0693 2.93143 40.7017 6.17579 40.7017H34.5749C37.8193 40.7017 40.4587 38.0693 40.4587 34.8336V6.51061C40.4587 3.27494 37.8193 0.642578 34.5749 0.642578ZM38.1052 34.8336C38.1052 36.775 36.5215 38.3544 34.5749 38.3544H6.17579C4.22923 38.3544 2.64551 36.775 2.64551 34.8336V6.51061C2.64551 4.56927 4.22923 2.98979 6.17579 2.98979H34.5749C36.5215 2.98979 38.1052 4.56927 38.1052 6.51061V34.8336Z" fill="#070707" stroke="#070707" stroke-width="0.5"/>
   <path d="M31.4199 29.6787C29.9833 29.6787 28.5569 29.6787 27.1084 29.6787C27.1084 29.6094 27.1084 29.5448 27.1084 29.4801C27.1084 27.1456 27.1081 24.8111 27.1087 22.4769C27.1087 21.98 27.0718 21.4893 26.947 21.0047C26.4316 19.0061 24.2058 19.1229 23.3203 20.0701C22.8753 20.5461 22.5845 21.0841 22.5723 21.7489C22.5695 21.9071 22.5603 22.0656 22.5603 22.2237C22.5593 24.6398 22.5597 27.0561 22.5597 29.4721C22.5597 29.5374 22.5597 29.6027 22.5597 29.6775C21.1173 29.6775 19.6912 29.6775 18.2559 29.6775C18.2559 25.2222 18.2559 20.7714 18.2559 16.3124C19.6887 16.3124 21.1148 16.3124 22.5575 16.3124C22.5575 16.916 22.5575 17.5106 22.5575 18.1053C22.5689 18.1102 22.5802 18.1154 22.5919 18.1203C22.6227 18.0786 22.654 18.0375 22.6844 17.9955C23.1156 17.3966 23.6111 16.8657 24.2694 16.5067C25.0046 16.1055 25.7988 15.9709 26.6252 15.9948C27.5202 16.0209 28.3694 16.2223 29.1347 16.7038C30.1158 17.3212 30.7136 18.2245 31.0637 19.3081C31.3366 20.1525 31.426 21.0237 31.4269 21.9059C31.4291 24.4445 31.4279 26.9834 31.4276 29.5221C31.4276 29.5717 31.4229 29.6214 31.4199 29.6787Z"/>
 </symbol>

 <symbol id="instagram">
    <path d="M12.1663 1.29281H12.6663V1.2832H28.571C34.5356 1.2832 39.4181 6.26789 39.4181 12.3952V29.1692C39.4181 35.2968 34.5353 40.2812 28.5804 40.2812H12.1663C6.20035 40.2812 1.30981 35.3048 1.30981 29.1884V12.4048C1.30981 6.27805 6.20115 1.29281 12.1663 1.29281ZM3.31814 12.4135V12.4144V29.1981C3.31814 34.1842 7.2457 38.2148 12.1663 38.2148H28.5804C33.4836 38.2148 37.4097 34.1827 37.4097 29.1788V12.4048C37.4097 7.4006 33.4833 3.36885 28.571 3.36885H12.1663C7.25349 3.36885 3.32807 7.40093 3.31814 12.4135ZM31.4025 8.4829C31.4025 7.89297 31.8565 7.44489 32.4067 7.44489C32.9568 7.44489 33.4108 7.89297 33.4108 8.4829C33.4108 9.07283 32.9568 9.52092 32.4067 9.52092C31.8565 9.52092 31.4025 9.07283 31.4025 8.4829ZM10.3442 20.787C10.3442 15.1313 14.8689 10.5209 20.3733 10.5209C25.8778 10.5209 30.4025 15.1313 30.4025 20.787C30.4025 26.4428 25.8778 31.0532 20.3733 31.0532C14.8689 31.0532 10.3442 26.4428 10.3442 20.787ZM28.3942 20.787C28.3942 16.2534 24.834 12.597 20.3733 12.597C15.9127 12.597 12.3525 16.2534 12.3525 20.787C12.3525 25.3206 15.9127 28.9771 20.3733 28.9771C24.834 28.9771 28.3942 25.3206 28.3942 20.787Z" fill="#070707" stroke="#070707"/>

</symbol>
</svg>
